<svg width="28" height="28" viewBox="0 0 28 28" fill="none" xmlns="http://www.w3.org/2000/svg">
<path d="M14.75 9C14.75 8.58579 14.4142 8.25 14 8.25C13.5858 8.25 13.25 8.58579 13.25 9H14.75ZM13.25 14C13.25 14.4142 13.5858 14.75 14 14.75C14.4142 14.75 14.75 14.4142 14.75 14H13.25ZM14 18.25C13.5858 18.25 13.25 18.5858 13.25 19C13.25 19.4142 13.5858 19.75 14 19.75V18.25ZM14.0125 19.75C14.4267 19.75 14.7625 19.4142 14.7625 19C14.7625 18.5858 14.4267 18.25 14.0125 18.25V19.75ZM25.75 14C25.75 20.4893 20.4893 25.75 14 25.75V27.25C21.3178 27.25 27.25 21.3178 27.25 14H25.75ZM14 25.75C7.51065 25.75 2.25 20.4893 2.25 14H0.75C0.75 21.3178 6.68223 27.25 14 27.25V25.75ZM2.25 14C2.25 7.51065 7.51065 2.25 14 2.25V0.75C6.68223 0.75 0.75 6.68223 0.75 14H2.25ZM14 2.25C20.4893 2.25 25.75 7.51065 25.75 14H27.25C27.25 6.68223 21.3178 0.75 14 0.75V2.25ZM13.25 9V14H14.75V9H13.25ZM14 19.75H14.0125V18.25H14V19.75Z" fill="#FF9900"/>
</svg>
